<svg width="26" height="26" viewBox="0 0 26 26" fill="none" xmlns="http://www.w3.org/2000/svg">
    <path d="M13 25C14.5762 25.002 16.1372 24.6926 17.5934 24.0894C19.0495 23.4862 20.3721 22.6012 21.4852 21.4852C22.6012 20.3721 23.4862 19.0495 24.0894 17.5934C24.6926 16.1372 25.002 14.5762 25 13C25.002 11.4238 24.6925 9.86283 24.0893 8.40666C23.4861 6.95049 22.6011 5.62787 21.4852 4.51481C20.3721 3.39882 19.0495 2.51381 17.5934 1.91062C16.1372 1.30743 14.5762 0.997968 13 1.00001C11.4238 0.998001 9.86283 1.30748 8.40666 1.91067C6.95049 2.51385 5.62787 3.39885 4.51481 4.51481C3.39885 5.62787 2.51385 6.95049 1.91067 8.40666C1.30748 9.86283 0.998001 11.4238 1.00001 13C0.997968 14.5762 1.30743 16.1372 1.91062 17.5934C2.51381 19.0495 3.39882 20.3721 4.51481 21.4852C5.62787 22.6011 6.95049 23.4861 8.40666 24.0893C9.86283 24.6925 11.4238 25.002 13 25V25Z" stroke="#63B450" stroke-width="2" stroke-linejoin="round"/>
    <path d="M13.3536 19.6542C13.2598 19.7479 13.1326 19.8006 13 19.8006C12.8674 19.8006 12.7402 19.7479 12.6464 19.6542C12.5527 19.5604 12.5 19.4332 12.5 19.3006C12.5 19.168 12.5527 19.0408 12.6464 18.9471C12.7402 18.8533 12.8674 18.8006 13 18.8006C13.1326 18.8006 13.2598 18.8533 13.3536 18.9471C13.4473 19.0408 13.5 19.168 13.5 19.3006C13.5 19.4332 13.4473 19.5604 13.3536 19.6542Z" fill="#63B450" stroke="#63B450" stroke-width="2"/>
    <path d="M13 5.80061V15.4006" stroke="#63B450" stroke-width="2" stroke-linecap="round" stroke-linejoin="round"/>
</svg>
