<svg width="16" height="16" viewBox="0 0 16 16" fill="none" xmlns="http://www.w3.org/2000/svg">
    <path d="M5.3335 3.83337C5.06016 3.83337 4.8335 3.60671 4.8335 3.33337V1.33337C4.8335 1.06004 5.06016 0.833374 5.3335 0.833374C5.60683 0.833374 5.8335 1.06004 5.8335 1.33337V3.33337C5.8335 3.60671 5.60683 3.83337 5.3335 3.83337Z" fill="#C9C5CA"/>
    <path d="M10.6665 3.83337C10.3932 3.83337 10.1665 3.60671 10.1665 3.33337V1.33337C10.1665 1.06004 10.3932 0.833374 10.6665 0.833374C10.9398 0.833374 11.1665 1.06004 11.1665 1.33337V3.33337C11.1665 3.60671 10.9398 3.83337 10.6665 3.83337Z" fill="#C9C5CA"/>
    <path d="M5.66667 9.66667C5.58 9.66667 5.49333 9.64668 5.41333 9.61335C5.32667 9.58001 5.26 9.53333 5.19333 9.47333C5.07333 9.34667 5 9.18 5 9C5 8.91334 5.02 8.82667 5.05333 8.74667C5.08667 8.66667 5.13333 8.59334 5.19333 8.52668C5.26 8.46668 5.32667 8.42 5.41333 8.38666C5.65333 8.28666 5.95333 8.34001 6.14 8.52668C6.26 8.65334 6.33333 8.82667 6.33333 9C6.33333 9.04 6.32667 9.08668 6.32 9.13335C6.31333 9.17335 6.3 9.21334 6.28 9.25334C6.26667 9.29334 6.24667 9.33334 6.22 9.37334C6.2 9.40667 6.16667 9.44 6.14 9.47333C6.01333 9.59333 5.84 9.66667 5.66667 9.66667Z" fill="#C9C5CA"/>
    <path d="M8.00016 9.6667C7.9135 9.6667 7.82683 9.64671 7.74683 9.61338C7.66016 9.58005 7.5935 9.53337 7.52683 9.47337C7.40683 9.3467 7.3335 9.18004 7.3335 9.00004C7.3335 8.91337 7.3535 8.8267 7.38683 8.7467C7.42016 8.6667 7.46683 8.59338 7.52683 8.52671C7.5935 8.46671 7.66016 8.42003 7.74683 8.3867C7.98683 8.28003 8.28683 8.34004 8.4735 8.52671C8.5935 8.65338 8.66683 8.8267 8.66683 9.00004C8.66683 9.04004 8.66016 9.08671 8.6535 9.13338C8.64683 9.17338 8.63349 9.21337 8.61349 9.25337C8.60016 9.29337 8.58016 9.33337 8.5535 9.37337C8.5335 9.4067 8.50016 9.44003 8.4735 9.47337C8.34683 9.59337 8.1735 9.6667 8.00016 9.6667Z" fill="#C9C5CA"/>
    <path d="M10.3332 9.6667C10.2465 9.6667 10.1598 9.64671 10.0798 9.61338C9.99317 9.58005 9.9265 9.53337 9.85984 9.47337C9.83317 9.44003 9.8065 9.4067 9.77984 9.37337C9.75317 9.33337 9.73317 9.29337 9.71984 9.25337C9.69984 9.21337 9.6865 9.17338 9.67984 9.13338C9.67317 9.08671 9.6665 9.04004 9.6665 9.00004C9.6665 8.8267 9.73984 8.65338 9.85984 8.52671C9.9265 8.46671 9.99317 8.42003 10.0798 8.3867C10.3265 8.28003 10.6198 8.34004 10.8065 8.52671C10.9265 8.65338 10.9998 8.8267 10.9998 9.00004C10.9998 9.04004 10.9932 9.08671 10.9865 9.13338C10.9798 9.17338 10.9665 9.21337 10.9465 9.25337C10.9332 9.29337 10.9132 9.33337 10.8865 9.37337C10.8665 9.4067 10.8332 9.44003 10.8065 9.47337C10.6798 9.59337 10.5065 9.6667 10.3332 9.6667Z" fill="#C9C5CA"/>
    <path d="M5.66667 12C5.58 12 5.49333 11.9801 5.41333 11.9467C5.33333 11.9134 5.26 11.8667 5.19333 11.8067C5.07333 11.68 5 11.5067 5 11.3334C5 11.2467 5.02 11.16 5.05333 11.08C5.08667 10.9934 5.13333 10.92 5.19333 10.86C5.44 10.6134 5.89333 10.6134 6.14 10.86C6.26 10.9867 6.33333 11.16 6.33333 11.3334C6.33333 11.5067 6.26 11.68 6.14 11.8067C6.01333 11.9267 5.84 12 5.66667 12Z" fill="#C9C5CA"/>
    <path d="M8.00016 12C7.82683 12 7.6535 11.9267 7.52683 11.8067C7.40683 11.68 7.3335 11.5067 7.3335 11.3334C7.3335 11.2467 7.3535 11.16 7.38683 11.08C7.42016 10.9934 7.46683 10.92 7.52683 10.86C7.7735 10.6134 8.22683 10.6134 8.4735 10.86C8.5335 10.92 8.58016 10.9934 8.61349 11.08C8.64683 11.16 8.66683 11.2467 8.66683 11.3334C8.66683 11.5067 8.5935 11.68 8.4735 11.8067C8.34683 11.9267 8.1735 12 8.00016 12Z" fill="#C9C5CA"/>
    <path d="M10.3332 12.0001C10.1598 12.0001 9.9865 11.9267 9.85984 11.8067C9.79984 11.7467 9.75317 11.6734 9.71984 11.5867C9.68651 11.5067 9.6665 11.4201 9.6665 11.3334C9.6665 11.2467 9.68651 11.1601 9.71984 11.0801C9.75317 10.9934 9.79984 10.9201 9.85984 10.8601C10.0132 10.7067 10.2465 10.6334 10.4598 10.6801C10.5065 10.6867 10.5465 10.7001 10.5865 10.7201C10.6265 10.7334 10.6665 10.7534 10.7065 10.7801C10.7398 10.8001 10.7732 10.8334 10.8065 10.8601C10.9265 10.9867 10.9998 11.1601 10.9998 11.3334C10.9998 11.5067 10.9265 11.6801 10.8065 11.8067C10.6798 11.9267 10.5065 12.0001 10.3332 12.0001Z" fill="#C9C5CA"/>
    <path d="M13.6668 6.55994H2.3335C2.06016 6.55994 1.8335 6.33327 1.8335 6.05994C1.8335 5.7866 2.06016 5.55994 2.3335 5.55994H13.6668C13.9402 5.55994 14.1668 5.7866 14.1668 6.05994C14.1668 6.33327 13.9402 6.55994 13.6668 6.55994Z" fill="#C9C5CA"/>
    <path d="M10.6667 15.1667H5.33333C2.9 15.1667 1.5 13.7667 1.5 11.3334V5.66671C1.5 3.23337 2.9 1.83337 5.33333 1.83337H10.6667C13.1 1.83337 14.5 3.23337 14.5 5.66671V11.3334C14.5 13.7667 13.1 15.1667 10.6667 15.1667ZM5.33333 2.83337C3.42667 2.83337 2.5 3.76004 2.5 5.66671V11.3334C2.5 13.24 3.42667 14.1667 5.33333 14.1667H10.6667C12.5733 14.1667 13.5 13.24 13.5 11.3334V5.66671C13.5 3.76004 12.5733 2.83337 10.6667 2.83337H5.33333Z" fill="#C9C5CA"/>
</svg>
