<svg width="23" height="22" viewBox="0 0 23 22" fill="none" xmlns="http://www.w3.org/2000/svg">
    <path d="M12.8937 14.1911L12.8033 14.5755L13.7565 14.8699L14.0265 14.1699L14.0491 14.1114L14.5311 13.636L14.5311 13.636L14.5336 13.6336C14.8188 13.3483 15.078 13.154 15.3097 13.0341L15.3267 13.0253L15.3429 13.0153C15.7455 12.7664 16.2746 12.7088 16.837 12.9413C17.0637 13.0373 17.3118 13.1698 17.5818 13.3586C17.5823 13.3589 17.5828 13.3593 17.5833 13.3596L20.9003 15.7175L20.9002 15.7176L20.9101 15.7243C21.2053 15.9238 21.4077 16.1684 21.5271 16.449C21.6556 16.7762 21.71 17.0623 21.71 17.34C21.71 17.7433 21.6176 18.1514 21.4369 18.5386C21.2481 18.9431 21.0164 19.2904 20.7214 19.6121L20.7192 19.6145C20.1932 20.196 19.634 20.5981 18.9932 20.8562L18.992 20.8567C18.362 21.1123 17.6759 21.25 16.95 21.25C15.8999 21.25 14.7764 20.999 13.5949 20.4995C12.4351 20.0066 11.2582 19.3268 10.1041 18.4957C8.95498 17.6508 7.84456 16.7075 6.79271 15.6756C5.7519 14.6247 4.80933 13.5152 3.97488 12.3766C3.13326 11.202 2.46362 10.0351 1.99083 8.916C1.49228 7.72694 1.25 6.59289 1.25 5.54C1.25 4.82109 1.37879 4.14321 1.62539 3.5128C1.87681 2.87555 2.28304 2.27705 2.84137 1.75533L2.8415 1.75547L2.85124 1.74586C3.54002 1.06602 4.29788 0.75 5.09 0.75C5.40725 0.75 5.73447 0.824113 6.0071 0.952409L6.0071 0.952422L6.01047 0.95398C6.32343 1.09842 6.57917 1.31014 6.76397 1.58735L6.768 1.59339L6.77221 1.59932L9.09221 4.86932L9.09219 4.86933L9.09503 4.87325C9.28649 5.13765 9.42345 5.38074 9.51462 5.61283L9.51778 5.62087L9.52122 5.6288C9.62931 5.87823 9.68 6.11052 9.68 6.32C9.68 6.5997 9.59988 6.88172 9.43125 7.16275L9.42697 7.1699L9.42292 7.17718C9.30212 7.39462 9.10491 7.64798 8.83645 7.91645L8.83636 7.91636L8.8289 7.92416L8.1489 8.63416L7.94028 8.85198L8.03566 9.13812C8.05695 9.20199 8.07988 9.24781 8.09179 9.27161L8.09279 9.27361L8.09899 9.28602L8.10588 9.29807C8.24515 9.54179 8.50495 9.92729 8.97938 10.4842L8.97934 10.4843L8.98371 10.4893C9.47625 11.0522 9.94322 11.5701 10.4127 12.0497L10.4126 12.0498L10.4195 12.0566C11.0116 12.6387 11.5133 13.1103 11.9897 13.5039C12.3591 13.8149 12.6566 14.0363 12.8937 14.1911ZM16.2204 13.2541C15.9789 13.2346 15.766 13.3222 15.566 13.4431C15.3046 13.5778 15.0861 13.7669 14.8776 13.9753C14.8772 13.9757 14.8768 13.9761 14.8764 13.9764L14.1211 14.7219C14.1207 14.7222 14.1204 14.7225 14.1201 14.7228C13.8835 14.9525 13.4996 15.018 13.2065 14.9157L12.9705 14.8109C12.6052 14.6127 12.1607 14.2993 11.6543 13.8694C11.1863 13.4697 10.6762 12.9991 10.0539 12.3868C9.57248 11.8954 9.09087 11.3744 8.58923 10.7941C8.14088 10.2694 7.83067 9.83841 7.64333 9.49704L7.54615 9.25408C7.49807 9.06525 7.49 8.98584 7.49 8.91C7.49 8.67875 7.57002 8.48709 7.72355 8.33355L7.72362 8.33362L7.73042 8.32655L8.47711 7.54999C8.69582 7.33082 8.87274 7.11046 8.99854 6.89762C9.11553 6.70611 9.18 6.50798 9.18 6.3C9.18 6.1255 9.12301 5.93523 9.06154 5.78769L9.06161 5.78766L9.05808 5.77959C8.96869 5.57528 8.8372 5.36374 8.68548 5.15741L6.36821 1.88127L6.36821 1.88126L6.36687 1.87938C6.21808 1.67108 6.03145 1.51424 5.80144 1.40691L5.80151 1.40678L5.79041 1.40192C5.57627 1.30824 5.33822 1.25 5.09 1.25C4.3781 1.25 3.75028 1.56559 3.19431 2.10871C2.68714 2.58386 2.32417 3.1129 2.09544 3.69509C1.85995 4.27911 1.75 4.89257 1.75 5.54C1.75 6.54798 1.98812 7.62425 2.44952 8.71482L2.44976 8.71539C2.91641 9.81462 3.56626 10.9475 4.38563 12.0741C5.20086 13.195 6.12733 14.2843 7.14469 15.3118L7.14467 15.3118L7.14823 15.3153C8.16574 16.3227 9.26478 17.2589 10.3953 18.0839C11.5018 18.8933 12.6451 19.5535 13.7854 20.0306C15.5611 20.7883 17.3098 21.003 18.8013 20.3819C19.3843 20.1417 19.8945 19.7766 20.3507 19.2656C20.6148 18.9779 20.8218 18.6664 20.9918 18.3042C21.142 17.9905 21.22 17.6576 21.22 17.32C21.22 17.0901 21.1753 16.8609 21.0669 16.6169L21.0623 16.6065L21.0572 16.5964C20.9975 16.477 20.887 16.2963 20.6163 16.1101L17.2997 13.7525L17.2967 13.7504C17.073 13.5938 16.8609 13.4743 16.6504 13.3877L16.6493 13.3872C16.6291 13.3789 16.6097 13.3704 16.5846 13.3594C16.5619 13.3493 16.5307 13.3355 16.4986 13.3227C16.4323 13.2963 16.3372 13.2636 16.2204 13.2541Z" fill="#292D32" stroke="#053B59"/>
</svg>
