<svg width="16" height="16" viewBox="0 0 16 16" fill="none" xmlns="http://www.w3.org/2000/svg">
    <mask id="mask0_1893_15535" style="mask-type:alpha" maskUnits="userSpaceOnUse" x="0" y="0" width="16" height="16">
        <rect width="16" height="16" fill="#D9D9D9"/>
    </mask>
    <g mask="url(#mask0_1893_15535)">
        <path d="M8 4.23333L6.11667 2.36667L7.05 1.41667L8 2.36667L10.3667 0L11.3 0.933333L8 4.23333ZM2.66667 16C2.47778 16 2.31944 15.9361 2.19167 15.8083C2.06389 15.6806 2 15.5222 2 15.3333V10L3.4 6C3.46667 5.8 3.58611 5.63889 3.75833 5.51667C3.93056 5.39444 4.12222 5.33333 4.33333 5.33333H11.6667C11.8778 5.33333 12.0694 5.39444 12.2417 5.51667C12.4139 5.63889 12.5333 5.8 12.6 6L14 10V15.3333C14 15.5222 13.9361 15.6806 13.8083 15.8083C13.6806 15.9361 13.5222 16 13.3333 16H12.6667C12.4778 16 12.3194 15.9361 12.1917 15.8083C12.0639 15.6806 12 15.5222 12 15.3333V14.6667H4V15.3333C4 15.5222 3.93611 15.6806 3.80833 15.8083C3.68056 15.9361 3.52222 16 3.33333 16H2.66667ZM3.86667 8.66667H12.1333L11.4333 6.66667H4.56667L3.86667 8.66667ZM5 12.6667C5.27778 12.6667 5.51389 12.5694 5.70833 12.375C5.90278 12.1806 6 11.9444 6 11.6667C6 11.3889 5.90278 11.1528 5.70833 10.9583C5.51389 10.7639 5.27778 10.6667 5 10.6667C4.72222 10.6667 4.48611 10.7639 4.29167 10.9583C4.09722 11.1528 4 11.3889 4 11.6667C4 11.9444 4.09722 12.1806 4.29167 12.375C4.48611 12.5694 4.72222 12.6667 5 12.6667ZM11 12.6667C11.2778 12.6667 11.5139 12.5694 11.7083 12.375C11.9028 12.1806 12 11.9444 12 11.6667C12 11.3889 11.9028 11.1528 11.7083 10.9583C11.5139 10.7639 11.2778 10.6667 11 10.6667C10.7222 10.6667 10.4861 10.7639 10.2917 10.9583C10.0972 11.1528 10 11.3889 10 11.6667C10 11.9444 10.0972 12.1806 10.2917 12.375C10.4861 12.5694 10.7222 12.6667 11 12.6667ZM3.33333 13.3333H12.6667V10H3.33333V13.3333Z" fill="#A1D296"/>
    </g>
</svg>
