<svg width="26" height="26" viewBox="0 0 26 26" fill="none" xmlns="http://www.w3.org/2000/svg">
    <circle cx="13" cy="13" r="12" fill="#F7A600"/>
    <circle cx="13" cy="13" r="12.5" stroke="#F7A600" stroke-opacity="0.4"/>
    <path opacity="0.5" d="M18.8031 9.27706C18.4065 7.592 17.4499 6.16051 16.1087 5.24566L15.7487 5.00018L13.8692 8.99638L13.8882 9.00494L13.8794 9.02302L14.1143 9.22949C14.862 9.88268 15.0872 11.034 14.6485 11.9664C14.2097 12.8989 13.2244 13.367 12.3039 13.0806L12.0157 12.9878L13.879 9.02207L13.8628 9.00827L13.8688 8.99543L13.4982 8.82559C12.7999 8.50651 12.0469 8.33299 11.2828 8.31511C10.5187 8.29722 9.75877 8.43532 9.04707 8.7214C7.58684 9.30228 6.39114 10.454 5.68188 11.964C4.97121 13.4851 4.81013 15.2161 5.22741 16.8479C5.64435 18.4778 6.58942 19.8646 7.89306 20.7542L8.25349 21.0002L10.132 17.0016L10.5054 17.171C11.243 17.5088 12.0415 17.6839 12.8491 17.6848C13.6101 17.6834 14.3634 17.5292 15.0668 17.2309C16.4761 16.6372 17.6319 15.5016 18.3222 14.034C19.0117 12.5527 19.1816 10.8722 18.8031 9.27706ZM10.12 16.9764L9.88466 16.7714C9.13602 16.1177 8.91179 14.9659 9.34912 14.034C9.78645 13.102 10.7741 12.6315 11.6942 12.9188L11.9828 13.0092L10.12 16.9764Z" fill="white"/>
</svg>
