<svg width="18" height="18" viewBox="0 0 18 18" fill="none" xmlns="http://www.w3.org/2000/svg">
    <path d="M6.75 17.1625H11.25C13.2977 17.1625 14.7829 16.7254 15.7541 15.7541C16.7254 14.7829 17.1625 13.2977 17.1625 11.25V9.75C17.1625 9.38727 16.8627 9.0875 16.5 9.0875C16.1373 9.0875 15.8375 9.38727 15.8375 9.75V11.25C15.8375 12.9717 15.5302 14.109 14.8196 14.8196C14.109 15.5302 12.9717 15.8375 11.25 15.8375H6.75C5.02831 15.8375 3.89101 15.5302 3.1804 14.8196C2.46979 14.109 2.1625 12.9717 2.1625 11.25V6.75C2.1625 5.02831 2.46979 3.89101 3.1804 3.1804C3.89101 2.46979 5.02831 2.1625 6.75 2.1625H8.25C8.61273 2.1625 8.9125 1.86273 8.9125 1.5C8.9125 1.13727 8.61273 0.8375 8.25 0.8375H6.75C4.70227 0.8375 3.21714 1.27456 2.24585 2.24585C1.27456 3.21714 0.8375 4.70227 0.8375 6.75V11.25C0.8375 13.2977 1.27456 14.7829 2.24585 15.7541C3.21714 16.7254 4.70227 17.1625 6.75 17.1625Z" fill="#053B59" stroke="#053B59" stroke-width="0.2"/>
    <path d="M5.11928 12.8732L5.12017 12.8741C5.44761 13.1935 5.89323 13.3675 6.375 13.3675H6.37896C6.46556 13.3675 6.57101 13.3675 6.6782 13.3434L8.93116 13.0215C8.93127 13.0215 8.93138 13.0215 8.93149 13.0215C9.38859 12.9583 9.97077 12.6631 10.2932 12.3407L16.2028 6.43108C16.2029 6.43101 16.203 6.43094 16.203 6.43087C16.8956 5.74581 17.2714 5.06553 17.342 4.35993L17.3421 4.35896C17.4206 3.48725 17.0337 2.62723 16.2032 1.79677C15.4458 1.03935 14.67 0.648108 13.8825 0.648108C13.095 0.648108 12.3192 1.03935 11.5618 1.79677L5.65179 7.70677C5.32933 8.02923 5.0341 8.61145 4.97097 9.06856C4.97096 9.06865 4.97095 9.06873 4.97094 9.06882L4.64856 11.3255C4.64855 11.3255 4.64854 11.3256 4.64853 11.3257C4.56212 11.9152 4.72664 12.4805 5.11928 12.8732ZM9.34929 11.4043L9.34926 11.4042L9.3474 11.4062C9.29175 11.465 9.18576 11.5356 9.06403 11.5965C8.94314 11.6569 8.82083 11.7007 8.73784 11.7136C8.73765 11.7136 8.73747 11.7136 8.73729 11.7136L6.48133 12.0359C6.48123 12.0359 6.48113 12.0359 6.48102 12.036C6.2821 12.0633 6.13836 12.0194 6.05571 11.9368C5.97305 11.8541 5.92914 11.7104 5.95653 11.5114C5.95654 11.5113 5.95655 11.5112 5.95656 11.5111L6.27884 9.25519C6.27886 9.25502 6.27889 9.25485 6.27891 9.25468C6.29174 9.17196 6.33536 9.05165 6.39587 8.93153C6.45651 8.81116 6.52772 8.70368 6.58821 8.64319L12.4979 2.7335C12.498 2.73345 12.498 2.7334 12.4981 2.73335C12.9337 2.30141 13.3379 2.02178 13.767 1.98206C14.1905 1.94286 14.669 2.13551 15.2591 2.72546C15.8214 3.2953 16.0513 3.78489 16.0104 4.22829C15.9761 4.59872 15.7407 5.01289 15.2593 5.49427L9.34929 11.4043Z" fill="#053B59" stroke="#053B59" stroke-width="0.2"/>
    <path d="M10.546 3.28154L10.546 3.28154L10.5462 3.28211C11.1104 5.28742 12.7032 6.8807 14.7082 7.44567C14.7645 7.46409 14.827 7.47252 14.8874 7.47252C15.1775 7.47252 15.444 7.28718 15.524 6.98607C15.6203 6.63488 15.419 6.26393 15.0643 6.16619C13.5005 5.7256 12.2594 4.48446 11.8188 2.9207C11.7213 2.56699 11.3584 2.36416 11.0059 2.4611L11.0059 2.46107L11.0037 2.46174C10.6525 2.56709 10.4489 2.9283 10.546 3.28154Z" fill="#053B59" stroke="#053B59" stroke-width="0.2"/>
</svg>
