<svg width="44" height="44" viewBox="0 0 44 44" fill="none" xmlns="http://www.w3.org/2000/svg">
    <path d="M28 43.5H16C5.14 43.5 0.5 38.86 0.5 28V16C0.5 5.14 5.14 0.5 16 0.5H28C38.86 0.5 43.5 5.14 43.5 16V28C43.5 38.86 38.86 43.5 28 43.5ZM16 3.5C6.78 3.5 3.5 6.78 3.5 16V28C3.5 37.22 6.78 40.5 16 40.5H28C37.22 40.5 40.5 37.22 40.5 28V16C40.5 6.78 37.22 3.5 28 3.5H16Z" fill="#C9C5CA"/>
    <path d="M25.52 33.5H18.46C16.26 33.5 14.52 32.42 13.54 30.46L11.76 26.88C11.34 26.02 10.48 25.5 9.52 25.5H1.98C1.16 25.5 0.479996 24.82 0.479996 24C0.479996 23.18 1.18 22.5 2 22.5H9.52C11.62 22.5 13.5 23.66 14.44 25.54L16.22 29.12C16.68 30.04 17.42 30.5 18.46 30.5H25.52C26.48 30.5 27.34 29.98 27.76 29.12L29.54 25.54C30.48 23.66 32.36 22.5 34.46 22.5H41.94C42.76 22.5 43.44 23.18 43.44 24C43.44 24.82 42.76 25.5 41.94 25.5H34.46C33.5 25.5 32.64 26.02 32.22 26.88L30.44 30.46C29.5 32.34 27.62 33.5 25.52 33.5Z" fill="#C9C5CA"/>
</svg>
