<svg width="76" height="26" viewBox="0 0 76 26" fill="none" xmlns="http://www.w3.org/2000/svg">
    <path d="M75.6902 6.91532C75.067 4.38773 73.5637 2.24048 71.4561 0.86822L70.8905 0.5L67.937 6.49429L67.9669 6.50714L67.953 6.53425L68.3221 6.84396C69.4971 7.82374 69.8509 9.55067 69.1615 10.9493C68.4721 12.348 66.9236 13.0502 65.4771 12.6206L65.0243 12.4814L67.9523 6.53283L67.9268 6.51213L67.9363 6.49286L67.3539 6.23811C66.2566 5.75949 65.0733 5.49921 63.8726 5.47239C62.6719 5.44556 61.4777 5.65271 60.3593 6.08183C58.0647 6.95314 56.1857 8.68078 55.0711 10.9458C53.9544 13.2275 53.7013 15.8239 54.357 18.2716C55.0122 20.7165 56.4973 22.7966 58.5459 24.1311L59.1122 24.5L62.0643 18.5021L62.651 18.7562C63.8101 19.263 65.0648 19.5255 66.334 19.5269C67.5298 19.5248 68.7136 19.2935 69.8189 18.8461C72.0334 17.9555 73.8498 16.2521 74.9345 14.0507C76.0181 11.8287 76.285 9.30803 75.6902 6.91532ZM62.0453 18.4643L61.6755 18.1568C60.4991 17.1763 60.1467 15.4486 60.834 14.0507C61.5212 12.6527 63.0733 11.947 64.5191 12.378L64.9726 12.5136L62.0453 18.4643Z" fill="#63B450"/>
    <path d="M33.6301 20.5L31.2121 17.8408C35.5248 14.102 35.3695 9.76493 35.3551 9.48919V9.41675V9.36533C35.3549 8.91481 35.2197 8.47422 34.9663 8.09799C34.7129 7.72175 34.3523 7.42634 33.9292 7.24823C33.5061 7.07012 33.0389 7.0171 32.5853 7.09574C32.1317 7.17437 31.7116 7.38121 31.3769 7.69071C31.0421 8.00021 30.8074 8.39881 30.7016 8.83731C30.5959 9.27581 30.6238 9.73498 30.7819 10.1582C30.9399 10.5813 31.2213 10.9499 31.5911 11.2185C31.961 11.4871 32.4032 11.6438 32.8631 11.6694L32.66 15.2213C31.4923 15.157 30.3694 14.7601 29.4293 14.0797C28.4893 13.3992 27.7732 12.4647 27.3692 11.3913C26.9652 10.3179 26.8909 9.15244 27.1555 8.03828C27.4201 6.92413 28.012 5.90995 28.8584 5.12059C29.7048 4.33122 30.7687 3.80113 31.9192 3.59553C33.0696 3.38994 34.2565 3.51782 35.3336 3.96345C36.4107 4.40907 37.3311 5.15299 37.9815 6.10364C38.6318 7.05429 38.9838 8.17016 38.994 9.31393C39.0275 10.0757 39.1015 15.7424 33.6301 20.5Z" fill="#053B59"/>
    <path d="M39.681 19.5C39.1163 19.5003 38.5531 19.4455 38 19.3363L38.7564 15.7976C39.4216 15.9289 40.1089 15.9165 40.7685 15.7613C41.428 15.6061 42.0433 15.312 42.5697 14.9003C43.096 14.4886 43.5203 13.9697 43.8117 13.3811C44.103 12.7926 44.2542 12.1492 44.2542 11.4976C44.2548 10.3765 43.8077 9.29769 43.005 8.48296C42.2023 7.66822 41.1048 7.17941 39.9381 7.11696H39.6909V3.5C39.8441 3.5 40.0023 3.5 40.1556 3.5C42.3181 3.62365 44.3457 4.54974 45.8091 6.08227C47.2726 7.61481 48.0571 9.63355 47.9968 11.7113C47.9364 13.789 47.0358 15.7626 45.4856 17.2145C43.9354 18.6664 41.8572 19.4827 39.6909 19.4905L39.681 19.5Z" fill="#053B59"/>
    <path d="M26.072 19.5C24.6181 19.5 22.9931 19.1222 21.6259 17.8588C20.1857 16.5243 19.3298 14.4685 19.0788 11.7479C18.8094 8.84578 19.2317 5.06294 20.3318 0.5L23.696 1.43712C21.4022 10.958 22.831 14.0343 23.8878 15.0205C25.5334 16.5586 28.6146 15.2462 28.6465 15.2314L30 18.6659C28.7492 19.1999 27.4178 19.4826 26.072 19.5Z" fill="#053B59"/>
    <path d="M12.5146 21.5L10 18.6984C15.466 12.9952 12.7087 6.45806 12.5896 6.18241L15.852 4.5C16.5666 6.27775 16.9546 8.18787 16.9946 10.1247C17.0718 13.1022 16.3593 17.4912 12.5146 21.5Z" fill="#053B59"/>
    <path d="M4.99127 19.5C2.82008 19.5 0.836408 18.0615 0.246729 15.991C-0.507879 13.2981 0.592406 10.2322 1.87343 8.261L4.38804 10.1402C3.52046 11.477 2.77263 13.5814 3.18383 15.0465C3.38039 15.7537 4.31348 16.2913 5.18783 16.2041C6.43045 16.0758 6.81001 14.8189 6.90716 13.7824C7.33869 9.24906 2.06999 6.49804 2.01803 6.4714L3.32842 3.5C3.62439 3.65014 10.6079 7.25843 9.95722 14.1166C9.61155 17.7636 7.41776 19.2748 5.47928 19.4734C5.32339 19.4927 5.1562 19.5 4.99127 19.5Z" fill="#053B59"/>
    <path d="M26 25.5C27.1046 25.5 28 24.3807 28 23C28 21.6193 27.1046 20.5 26 20.5C24.8954 20.5 24 21.6193 24 23C24 24.3807 24.8954 25.5 26 25.5Z" fill="#053B59"/>
</svg>
