<svg width="23" height="22" viewBox="0 0 23 22" fill="none" xmlns="http://www.w3.org/2000/svg">
    <path d="M8.09806 18.2597L8.04951 18.25H8H7.5C5.43334 18.25 3.90531 17.9632 2.88387 17.1005C1.88216 16.2545 1.25 14.7482 1.25 12V7C1.25 4.87378 1.80947 3.33263 2.82105 2.32105C3.83263 1.30947 5.37378 0.75 7.5 0.75H15.5C17.6262 0.75 19.1674 1.30947 20.1789 2.32105C21.1905 3.33263 21.75 4.87378 21.75 7V12C21.75 14.1262 21.1905 15.6674 20.1789 16.6789C19.1674 17.6905 17.6262 18.25 15.5 18.25H15C14.7432 18.25 14.5411 18.3797 14.4159 18.5299L14.4077 18.5397L14.4 18.55L12.9008 20.549C12.9008 20.549 12.9007 20.549 12.9007 20.5491C12.522 21.0512 12.0123 21.31 11.5 21.31C10.9877 21.31 10.478 21.0512 10.0993 20.5491C10.0993 20.549 10.0992 20.549 10.0992 20.549L8.6 18.55C8.53815 18.4675 8.46434 18.4182 8.43391 18.3986C8.39344 18.3725 8.35308 18.3517 8.31972 18.336C8.26097 18.3085 8.17787 18.2757 8.09806 18.2597ZM10.5 20.25L10.5021 20.2528C10.7455 20.5727 11.0927 20.795 11.5 20.795C11.9073 20.795 12.2545 20.5727 12.4979 20.2528L12.5 20.25L14 18.25C14.2356 17.9359 14.6074 17.75 15 17.75H15.5C17.3583 17.75 18.825 17.3172 19.8211 16.3211C20.8172 15.325 21.25 13.8583 21.25 12V7C21.25 5.14167 20.8172 3.67505 19.8211 2.67895C18.825 1.68285 17.3583 1.25 15.5 1.25H7.5C5.64167 1.25 4.17505 1.68285 3.17895 2.67895C2.18285 3.67505 1.75 5.14167 1.75 7V12C1.75 14.2821 2.13315 15.7948 3.15731 16.6955C4.16408 17.5808 5.66081 17.75 7.5 17.75H8C8.3516 17.75 8.78416 17.9651 9.00069 18.2509C9.00085 18.2511 9.00101 18.2513 9.00117 18.2516L10.5 20.25Z" fill="#292D32" stroke="#053B59"/>
</svg>
