<svg width="18" height="22" viewBox="0 0 18 22" fill="none" xmlns="http://www.w3.org/2000/svg">
    <path d="M8.98003 1.90991C12.29 1.90991 14.98 4.59991 14.98 7.90991V10.7999C14.98 11.4099 15.24 12.3399 15.55 12.8599L16.7 14.7699C17.41 15.9499 16.92 17.2599 15.62 17.6999C11.31 19.1399 6.66003 19.1399 2.35003 17.6999C1.14003 17.2999 0.610035 15.8699 1.27003 14.7699L2.42003 12.8599C2.72003 12.3399 2.98003 11.4099 2.98003 10.7999V7.90991C2.98003 4.60991 5.68003 1.90991 8.98003 1.90991Z" stroke="#053B59" stroke-width="1.5" stroke-miterlimit="10" stroke-linecap="round"/>
    <path d="M7.12996 2.19994C7.43996 2.10994 7.75996 2.03994 8.08996 1.99994C9.04996 1.87994 9.96996 1.94994 10.83 2.19994C10.54 1.45994 9.81996 0.939941 8.97996 0.939941C8.13996 0.939941 7.41996 1.45994 7.12996 2.19994Z" stroke="#053B59" stroke-width="1.5" stroke-miterlimit="10" stroke-linecap="round" stroke-linejoin="round"/>
    <path d="M5.97998 18.0601C5.97998 19.7101 7.32998 21.0601 8.97998 21.0601C9.79998 21.0601 10.56 20.7201 11.1 20.1801C11.64 19.6401 11.98 18.8801 11.98 18.0601" stroke="#053B59" stroke-width="1.5" stroke-miterlimit="10"/>
</svg>
