<svg width="32" height="32" viewBox="0 0 32 32" fill="none" xmlns="http://www.w3.org/2000/svg">
    <circle cx="16" cy="16" r="16" fill="#FAFAFA"/>
    <path d="M15.8933 15.2467C15.96 15.24 16.04 15.24 16.1133 15.2467C17.7 15.1933 18.96 13.8933 18.96 12.2933C18.96 10.66 17.64 9.33333 16 9.33333C14.3667 9.33333 13.04 10.66 13.04 12.2933C13.0467 13.8933 14.3067 15.1933 15.8933 15.2467Z" stroke="#C9C5CA" stroke-width="1.5" stroke-linecap="round" stroke-linejoin="round"/>
    <path d="M19.2267 17.7067C20.84 18.7867 20.84 20.5467 19.2267 21.62C17.3933 22.8467 14.3867 22.8467 12.5533 21.62C10.94 20.54 10.94 18.78 12.5533 17.7067C14.38 16.4867 17.3867 16.4867 19.2267 17.7067Z" stroke="#C9C5CA" stroke-width="1.5" stroke-linecap="round" stroke-linejoin="round"/>
</svg>
