<svg width="48" height="61" viewBox="0 0 48 61" fill="none" xmlns="http://www.w3.org/2000/svg">
    <circle cx="24.0879" cy="50.0879" r="10.0879" fill="#63B450" fill-opacity="0.4"/>
    <circle cx="24.0874" cy="50.0865" r="4.10989" fill="#4F9040"/>
    <g filter="url(#filter0_f_129_14717)">
        <path fill-rule="evenodd" clip-rule="evenodd" d="M29.7023 40.5869C29.943 40.1818 30.3206 39.8787 30.759 39.706C37.3508 37.1092 42 30.8274 42 23.4905C42 13.8307 33.9411 6 24 6C14.0589 6 6 13.8307 6 23.4905C6 30.8264 10.6479 37.1075 17.2384 39.705C17.6766 39.8777 18.0541 40.1808 18.2947 40.5857L22.2795 47.2922C23.0546 48.5967 24.9432 48.5967 25.7183 47.2922L29.7023 40.5869Z" fill="#82C372"/>
        <g opacity="0.86" filter="url(#filter1_d_129_14717)">
            <ellipse cx="23.9991" cy="23.4906" rx="14.2105" ry="13.8083" fill="white"/>
        </g>
    </g>
    <path fill-rule="evenodd" clip-rule="evenodd" d="M29.7023 40.5869C29.943 40.1818 30.3206 39.8787 30.759 39.706C37.3508 37.1092 42 30.8274 42 23.4905C42 13.8307 33.9411 6 24 6C14.0589 6 6 13.8307 6 23.4905C6 30.8264 10.6479 37.1075 17.2384 39.705C17.6766 39.8777 18.0541 40.1808 18.2947 40.5857L22.2795 47.2922C23.0546 48.5967 24.9432 48.5967 25.7183 47.2922L29.7023 40.5869Z" fill="#63B450"/>
    <path d="M24 23.6737C21.2906 23.6737 19.1094 21.5338 19.1094 18.9357C19.1094 16.3375 21.2906 14.1976 24 14.1976C26.7094 14.1976 28.8906 16.3375 28.8906 18.9357C28.8906 21.5338 26.7094 23.6737 24 23.6737ZM24 14.5641C21.5437 14.5641 19.5156 16.5144 19.5156 18.9357C19.5156 21.3569 21.5437 23.3072 24 23.3072C26.4563 23.3072 28.4844 21.3569 28.4844 18.9357C28.4844 16.5144 26.4563 14.5641 24 14.5641Z" fill="#292D32" stroke="white"/>
    <path d="M32.0533 32.7833C31.9314 32.7833 31.8501 32.684 31.8501 32.6001C31.8501 29.0696 28.1996 26.4066 24.0001 26.4066C19.8006 26.4066 16.1501 29.0696 16.1501 32.6001C16.1501 32.684 16.0689 32.7833 15.947 32.7833C15.8252 32.7833 15.7439 32.684 15.7439 32.6001C15.7439 29.0815 19.3424 26.0401 24.0001 26.0401C28.6579 26.0401 32.2564 29.0815 32.2564 32.6001C32.2564 32.684 32.1751 32.7833 32.0533 32.7833Z" fill="#292D32" stroke="white"/>
    <defs>
        <filter id="filter0_f_129_14717" x="0" y="0" width="48" height="54.2706" filterUnits="userSpaceOnUse" color-interpolation-filters="sRGB">
            <feFlood flood-opacity="0" result="BackgroundImageFix"/>
            <feBlend mode="normal" in="SourceGraphic" in2="BackgroundImageFix" result="shape"/>
            <feGaussianBlur stdDeviation="3" result="effect1_foregroundBlur_129_14717"/>
        </filter>
        <filter id="filter1_d_129_14717" x="5.7886" y="9.68237" width="36.4211" height="37.6165" filterUnits="userSpaceOnUse" color-interpolation-filters="sRGB">
            <feFlood flood-opacity="0" result="BackgroundImageFix"/>
            <feColorMatrix in="SourceAlpha" type="matrix" values="0 0 0 0 0 0 0 0 0 0 0 0 0 0 0 0 0 0 127 0" result="hardAlpha"/>
            <feOffset dy="6"/>
            <feGaussianBlur stdDeviation="2"/>
            <feComposite in2="hardAlpha" operator="out"/>
            <feColorMatrix type="matrix" values="0 0 0 0 0.0196078 0 0 0 0 0.231373 0 0 0 0 0.34902 0 0 0 0.4 0"/>
            <feBlend mode="normal" in2="BackgroundImageFix" result="effect1_dropShadow_129_14717"/>
            <feBlend mode="normal" in="SourceGraphic" in2="effect1_dropShadow_129_14717" result="shape"/>
        </filter>
    </defs>
</svg>
